# xmcd
#
# Track frame offsets: 
#        183
#        18595
#        42283
#        72633
#        95333
#        118258
#        133045
#        155458
#        178783
#        207120
#        227408
#        267958
#        280020
#
# Disc length: 3972 seconds
#
# Revision: 6
# Processed by: cddbd v1.5.2PL0 Copyright (c) Steve Scherf et al.
# Submitted via: ExactAudioCopyFreeDBPlugin 1.0
#
DISCID=b80f820d
DTITLE=Georgie Fame - Cool Cat Blues
DYEAR=1991
DGENRE=Blues
TTITLE0=Cool Cat Blues
TTITLE1=Every Knock Is A Boost
TTITLE2=Moondance
TTITLE3=It Should Have Been Me
TTITLE4=Yeah Yeah
TTITLE5=I Love The Life I Live
TTITLE6=Big Brother
TTITLE7=Georgia
TTITLE8=Cat's Eyes
TTITLE9=You Came A Long Way From St. Louis
TTITLE10=Survival
TTITLE11=Little Pony
TTITLE12=Knocking Chair
EXTD=YEAR: 1991
EXTT0=
EXTT1=
EXTT2=
EXTT3=
EXTT4=
EXTT5=
EXTT6=
EXTT7=
EXTT8=
EXTT9=
EXTT10=
EXTT11=
EXTT12=
PLAYORDER=
